<svg xmlns="http://www.w3.org/2000/svg" xmlns:xlink="http://www.w3.org/1999/xlink" width="500" zoomAndPan="magnify" viewBox="0 0 375 149.999998" height="200" preserveAspectRatio="xMidYMid meet" version="1.0"><defs><g/><clipPath id="11a8126256"><path d="M 19.480469 102.121094 L 355.519531 102.121094 L 355.519531 112 L 19.480469 112 Z M 19.480469 102.121094 " clip-rule="nonzero"/></clipPath><clipPath id="e730cb7755"><path d="M 56.226562 117.84375 L 318.773438 117.84375 L 318.773438 123.171875 L 56.226562 123.171875 Z M 56.226562 117.84375 " clip-rule="nonzero"/></clipPath><clipPath id="8d13277553"><path d="M 112.492188 128.96875 L 262.507812 128.96875 L 262.507812 132.71875 L 112.492188 132.71875 Z M 112.492188 128.96875 " clip-rule="nonzero"/></clipPath></defs><g fill="#bdd4de" fill-opacity="1"><g transform="translate(0.000003125, 93.061375)"><g><path d="M 13.054688 -38.652344 L 13.054688 -67.492188 C 13.054688 -67.832031 12.714844 -68.257812 12.117188 -68.257812 L 0.9375 -68.257812 C 0.425781 -68.257812 0 -67.832031 0 -67.492188 L 0 -38.652344 Z M 51.023438 -68.257812 L 39.847656 -68.257812 C 39.335938 -68.257812 38.90625 -67.832031 38.90625 -67.492188 L 38.90625 -25.511719 L 13.054688 -25.511719 L 13.054688 -25.597656 L 0 -25.597656 L 0 -0.769531 C 0 -0.425781 0.425781 0 0.9375 0 L 12.117188 0 C 12.714844 0 13.054688 -0.425781 13.054688 -0.769531 L 13.054688 -12.796875 L 38.90625 -12.796875 L 38.90625 -0.769531 C 38.90625 -0.425781 39.335938 0 39.847656 0 L 51.023438 0 C 51.621094 0 51.960938 -0.425781 51.960938 -0.769531 L 51.960938 -67.492188 C 51.960938 -67.832031 51.621094 -68.257812 51.023438 -68.257812 Z M 51.023438 -68.257812 "/></g></g></g><g fill="#bdd4de" fill-opacity="1"><g transform="translate(54.604945, 93.061375)"><g><path d="M 39.25 -33.957031 C 39.25 -37.542969 36.433594 -40.441406 32.847656 -40.441406 C 29.265625 -40.441406 26.449219 -37.542969 26.449219 -33.957031 C 26.449219 -30.460938 29.265625 -27.558594 32.847656 -27.558594 C 36.433594 -27.558594 39.25 -30.460938 39.25 -33.957031 Z M 65.699219 -34.214844 C 65.699219 -51.195312 54.691406 -68.257812 32.933594 -68.257812 C 10.835938 -68.257812 0 -51.195312 0 -34.214844 C 0 -17.148438 10.835938 0 32.933594 0 C 54.691406 0 65.699219 -17.148438 65.699219 -34.214844 Z M 52.898438 -33.957031 C 52.898438 -22.953125 46.160156 -11.945312 32.933594 -11.945312 C 19.539062 -11.945312 12.882812 -22.953125 12.882812 -33.957031 C 12.882812 -45.136719 19.539062 -56.226562 32.933594 -56.226562 C 46.160156 -56.226562 52.898438 -45.136719 52.898438 -33.957031 Z M 52.898438 -33.957031 "/></g></g></g><g fill="#bdd4de" fill-opacity="1"><g transform="translate(123.543683, 93.061375)"><g><path d="M 46.585938 -1.109375 C 42.320312 -10.578125 37.710938 -19.964844 33.445312 -29.605469 C 40.273438 -32.082031 45.988281 -37.542969 45.988281 -47.953125 C 45.988281 -68.089844 26.792969 -68.257812 22.953125 -68.257812 L 0.851562 -68.257812 C 0.425781 -68.257812 0 -67.832031 0 -67.492188 L 0 -55.886719 L 22.953125 -55.886719 C 25 -55.886719 33.019531 -55.460938 33.019531 -47.953125 C 33.019531 -40.441406 25.769531 -40.101562 22.953125 -40.101562 L 0 -40.101562 L 0 -0.769531 C 0 -0.425781 0.425781 0 0.851562 0 L 12.03125 0 C 12.542969 0 12.96875 -0.425781 12.96875 -0.769531 L 12.96875 -27.558594 L 20.308594 -27.558594 L 32.765625 -0.511719 C 32.847656 -0.257812 33.363281 0 33.617188 0 L 45.820312 0 C 46.5 0 46.84375 -0.511719 46.585938 -1.109375 Z M 46.585938 -1.109375 "/></g></g></g><g fill="#bdd4de" fill-opacity="1"><g transform="translate(172.602808, 93.061375)"><g><path d="M 27.816406 -11.6875 L 20.988281 -11.6875 L 20.988281 -68.257812 L 7.933594 -68.257812 L 7.933594 -11.6875 L 0.9375 -11.6875 C 0.425781 -11.6875 0 -11.347656 0 -10.921875 L 0 -0.769531 C 0 -0.425781 0.425781 0 0.9375 0 L 27.816406 0 C 28.414062 0 28.753906 -0.425781 28.753906 -0.769531 L 28.753906 -10.921875 C 28.753906 -11.347656 28.414062 -11.6875 27.816406 -11.6875 Z M 27.816406 -11.6875 "/></g></g></g><g fill="#bdd4de" fill-opacity="1"><g transform="translate(202.806164, 93.061375)"><g><path d="M 39.929688 -12.628906 L 4.863281 -12.628906 L 0.171875 -1.109375 C -0.0859375 -0.425781 0.257812 0 1.109375 0 L 39.847656 0 C 40.441406 0 40.871094 -0.425781 40.871094 -0.769531 L 40.871094 -11.859375 C 40.871094 -12.285156 40.527344 -12.628906 39.929688 -12.628906 Z M 0.9375 -55.546875 L 22.011719 -55.546875 L 10.066406 -25.683594 L 24.0625 -25.683594 L 40.699219 -67.148438 C 40.871094 -67.832031 40.527344 -68.257812 39.761719 -68.257812 L 0.9375 -68.257812 C 0.425781 -68.257812 0 -67.832031 0 -67.492188 L 0 -56.398438 C 0 -55.972656 0.425781 -55.546875 0.9375 -55.546875 Z M 0.9375 -55.546875 "/></g></g></g><g fill="#bdd4de" fill-opacity="1"><g transform="translate(245.722229, 93.061375)"><g><path d="M 39.25 -33.957031 C 39.25 -37.542969 36.433594 -40.441406 32.847656 -40.441406 C 29.265625 -40.441406 26.449219 -37.542969 26.449219 -33.957031 C 26.449219 -30.460938 29.265625 -27.558594 32.847656 -27.558594 C 36.433594 -27.558594 39.25 -30.460938 39.25 -33.957031 Z M 65.699219 -34.214844 C 65.699219 -51.195312 54.691406 -68.257812 32.933594 -68.257812 C 10.835938 -68.257812 0 -51.195312 0 -34.214844 C 0 -17.148438 10.835938 0 32.933594 0 C 54.691406 0 65.699219 -17.148438 65.699219 -34.214844 Z M 52.898438 -33.957031 C 52.898438 -22.953125 46.160156 -11.945312 32.933594 -11.945312 C 19.539062 -11.945312 12.882812 -22.953125 12.882812 -33.957031 C 12.882812 -45.136719 19.539062 -56.226562 32.933594 -56.226562 C 46.160156 -56.226562 52.898438 -45.136719 52.898438 -33.957031 Z M 52.898438 -33.957031 "/></g></g></g><g fill="#bdd4de" fill-opacity="1"><g transform="translate(314.660955, 93.061375)"><g><path d="M 56.484375 -68.257812 L 45.476562 -68.257812 C 44.878906 -68.257812 44.453125 -67.832031 44.453125 -67.492188 L 44.453125 -23.039062 L 12.96875 -68.003906 C 12.882812 -68.171875 12.371094 -68.257812 12.203125 -68.257812 L 0.851562 -68.257812 C 0.425781 -68.257812 0 -67.832031 0 -67.492188 L 0 -16.382812 L 13.054688 -16.382812 L 13.054688 -45.222656 L 44.453125 -0.257812 C 44.539062 -0.0859375 45.050781 0 45.222656 0 L 56.484375 0 C 57.082031 0 57.421875 -0.425781 57.421875 -0.769531 L 57.421875 -67.492188 C 57.421875 -67.832031 57.082031 -68.257812 56.484375 -68.257812 Z M 56.484375 -68.257812 "/></g></g></g><g clip-path="url(#11a8126256)"><path fill="#bdd4de" d="M 19.480469 102.121094 L 355.574219 102.121094 L 355.574219 111.964844 L 19.480469 111.964844 Z M 19.480469 102.121094 " fill-opacity="1" fill-rule="nonzero"/></g><g clip-path="url(#e730cb7755)"><path fill="#bdd4de" d="M 56.226562 117.84375 L 318.492188 117.84375 L 318.492188 123.46875 L 56.226562 123.46875 Z M 56.226562 117.84375 " fill-opacity="1" fill-rule="nonzero"/></g><g clip-path="url(#8d13277553)"><path fill="#bdd4de" d="M 112.492188 128.96875 L 262.257812 128.96875 L 262.257812 132.484375 L 112.492188 132.484375 Z M 112.492188 128.96875 " fill-opacity="1" fill-rule="nonzero"/></g></svg>