<svg xmlns="http://www.w3.org/2000/svg" xmlns:xlink="http://www.w3.org/1999/xlink" width="500" zoomAndPan="magnify" viewBox="0 0 375 374.999991" height="500" preserveAspectRatio="xMidYMid meet" version="1.0"><path fill="#3397e8" d="M 306.171875 187.773438 C 306.171875 189.71875 306.125 191.660156 306.027344 193.601562 C 305.933594 195.542969 305.789062 197.480469 305.601562 199.414062 C 305.410156 201.347656 305.171875 203.273438 304.886719 205.199219 C 304.601562 207.121094 304.269531 209.035156 303.890625 210.941406 C 303.511719 212.847656 303.085938 214.742188 302.613281 216.628906 C 302.140625 218.511719 301.621094 220.386719 301.058594 222.246094 C 300.496094 224.105469 299.886719 225.949219 299.230469 227.777344 C 298.574219 229.609375 297.875 231.421875 297.132812 233.21875 C 296.390625 235.011719 295.601562 236.789062 294.769531 238.546875 C 293.941406 240.300781 293.066406 242.039062 292.148438 243.75 C 291.234375 245.464844 290.277344 247.15625 289.277344 248.824219 C 288.277344 250.488281 287.238281 252.132812 286.160156 253.746094 C 285.078125 255.363281 283.960938 256.953125 282.800781 258.511719 C 281.644531 260.074219 280.449219 261.605469 279.21875 263.109375 C 277.984375 264.609375 276.714844 266.082031 275.410156 267.519531 C 274.105469 268.960938 272.765625 270.367188 271.390625 271.742188 C 270.015625 273.117188 268.609375 274.457031 267.167969 275.761719 C 265.730469 277.066406 264.257812 278.335938 262.757812 279.570312 C 261.253906 280.800781 259.722656 281.996094 258.160156 283.152344 C 256.601562 284.3125 255.011719 285.429688 253.394531 286.511719 C 251.78125 287.589844 250.136719 288.628906 248.472656 289.628906 C 246.804688 290.628906 245.113281 291.585938 243.398438 292.5 C 241.6875 293.417969 239.949219 294.292969 238.195312 295.121094 C 236.4375 295.953125 234.660156 296.742188 232.867188 297.484375 C 231.070312 298.226562 229.257812 298.925781 227.425781 299.582031 C 225.597656 300.238281 223.753906 300.847656 221.894531 301.410156 C 220.035156 301.972656 218.160156 302.492188 216.277344 302.964844 C 214.390625 303.4375 212.496094 303.863281 210.589844 304.242188 C 208.683594 304.621094 206.769531 304.953125 204.847656 305.238281 C 202.921875 305.523438 200.996094 305.761719 199.0625 305.953125 C 197.128906 306.140625 195.191406 306.285156 193.25 306.378906 C 191.308594 306.476562 189.367188 306.523438 187.421875 306.523438 C 185.476562 306.523438 183.535156 306.476562 181.59375 306.378906 C 179.652344 306.285156 177.714844 306.140625 175.78125 305.953125 C 173.847656 305.761719 171.921875 305.523438 169.996094 305.238281 C 168.074219 304.953125 166.160156 304.621094 164.253906 304.242188 C 162.347656 303.863281 160.453125 303.4375 158.566406 302.964844 C 156.683594 302.492188 154.808594 301.972656 152.949219 301.410156 C 151.089844 300.847656 149.246094 300.238281 147.417969 299.582031 C 145.585938 298.925781 143.773438 298.226562 141.976562 297.484375 C 140.183594 296.742188 138.40625 295.953125 136.648438 295.121094 C 134.894531 294.292969 133.15625 293.417969 131.445312 292.5 C 129.730469 291.585938 128.039062 290.628906 126.371094 289.628906 C 124.707031 288.628906 123.0625 287.589844 121.449219 286.511719 C 119.832031 285.429688 118.242188 284.3125 116.683594 283.152344 C 115.121094 281.996094 113.589844 280.800781 112.085938 279.570312 C 110.585938 278.335938 109.113281 277.066406 107.675781 275.761719 C 106.234375 274.457031 104.828125 273.117188 103.453125 271.742188 C 102.078125 270.367188 100.738281 268.960938 99.433594 267.519531 C 98.128906 266.082031 96.859375 264.609375 95.625 263.109375 C 94.394531 261.605469 93.199219 260.074219 92.039062 258.511719 C 90.882812 256.953125 89.765625 255.363281 88.683594 253.746094 C 87.605469 252.132812 86.566406 250.488281 85.566406 248.824219 C 84.566406 247.15625 83.609375 245.464844 82.695312 243.75 C 81.777344 242.039062 80.902344 240.300781 80.074219 238.546875 C 79.242188 236.789062 78.453125 235.011719 77.710938 233.21875 C 76.96875 231.421875 76.269531 229.609375 75.613281 227.777344 C 74.957031 225.949219 74.347656 224.105469 73.785156 222.246094 C 73.222656 220.386719 72.703125 218.511719 72.230469 216.628906 C 71.757812 214.742188 71.332031 212.847656 70.953125 210.941406 C 70.574219 209.035156 70.242188 207.121094 69.957031 205.199219 C 69.671875 203.273438 69.433594 201.347656 69.242188 199.414062 C 69.054688 197.480469 68.910156 195.542969 68.816406 193.601562 C 68.71875 191.660156 68.671875 189.71875 68.671875 187.773438 C 68.671875 185.828125 68.71875 183.886719 68.816406 181.945312 C 68.910156 180.003906 69.054688 178.066406 69.242188 176.132812 C 69.433594 174.199219 69.671875 172.273438 69.957031 170.347656 C 70.242188 168.425781 70.574219 166.511719 70.953125 164.605469 C 71.332031 162.699219 71.757812 160.804688 72.230469 158.917969 C 72.703125 157.035156 73.222656 155.160156 73.785156 153.300781 C 74.347656 151.441406 74.957031 149.597656 75.613281 147.769531 C 76.269531 145.9375 76.96875 144.125 77.710938 142.328125 C 78.453125 140.535156 79.242188 138.757812 80.074219 137 C 80.902344 135.246094 81.777344 133.507812 82.695312 131.796875 C 83.609375 130.082031 84.566406 128.390625 85.566406 126.722656 C 86.566406 125.058594 87.605469 123.414062 88.683594 121.800781 C 89.765625 120.183594 90.882812 118.59375 92.039062 117.035156 C 93.199219 115.472656 94.394531 113.941406 95.625 112.4375 C 96.859375 110.9375 98.128906 109.464844 99.433594 108.027344 C 100.738281 106.585938 102.078125 105.179688 103.453125 103.804688 C 104.828125 102.429688 106.234375 101.089844 107.675781 99.785156 C 109.113281 98.480469 110.585938 97.210938 112.085938 95.976562 C 113.589844 94.746094 115.121094 93.550781 116.683594 92.390625 C 118.242188 91.234375 119.832031 90.117188 121.449219 89.035156 C 123.0625 87.957031 124.707031 86.917969 126.371094 85.917969 C 128.039062 84.917969 129.730469 83.960938 131.445312 83.046875 C 133.15625 82.128906 134.894531 81.253906 136.648438 80.425781 C 138.40625 79.59375 140.183594 78.804688 141.976562 78.0625 C 143.773438 77.320312 145.585938 76.621094 147.417969 75.964844 C 149.246094 75.308594 151.089844 74.699219 152.949219 74.136719 C 154.808594 73.574219 156.683594 73.054688 158.566406 72.582031 C 160.453125 72.109375 162.347656 71.683594 164.253906 71.304688 C 166.160156 70.925781 168.074219 70.59375 169.996094 70.308594 C 171.921875 70.023438 173.847656 69.785156 175.78125 69.59375 C 177.714844 69.40625 179.652344 69.261719 181.59375 69.167969 C 183.535156 69.070312 185.476562 69.023438 187.421875 69.023438 C 189.367188 69.023438 191.308594 69.070312 193.25 69.167969 C 195.191406 69.261719 197.128906 69.40625 199.0625 69.59375 C 200.996094 69.785156 202.921875 70.023438 204.847656 70.308594 C 206.769531 70.59375 208.683594 70.925781 210.589844 71.304688 C 212.496094 71.683594 214.390625 72.109375 216.277344 72.582031 C 218.160156 73.054688 220.035156 73.574219 221.894531 74.136719 C 223.753906 74.699219 225.597656 75.308594 227.425781 75.964844 C 229.257812 76.621094 231.070312 77.320312 232.867188 78.0625 C 234.660156 78.804688 236.4375 79.59375 238.195312 80.425781 C 239.949219 81.253906 241.6875 82.128906 243.398438 83.046875 C 245.113281 83.960938 246.804688 84.917969 248.472656 85.917969 C 250.136719 86.917969 251.78125 87.957031 253.394531 89.035156 C 255.011719 90.117188 256.601562 91.234375 258.160156 92.390625 C 259.722656 93.550781 261.253906 94.746094 262.757812 95.976562 C 264.257812 97.210938 265.730469 98.480469 267.167969 99.785156 C 268.609375 101.089844 270.015625 102.429688 271.390625 103.804688 C 272.765625 105.179688 274.105469 106.585938 275.410156 108.027344 C 276.714844 109.464844 277.984375 110.9375 279.21875 112.4375 C 280.449219 113.941406 281.644531 115.472656 282.800781 117.035156 C 283.960938 118.59375 285.078125 120.183594 286.160156 121.800781 C 287.238281 123.414062 288.277344 125.058594 289.277344 126.722656 C 290.277344 128.390625 291.234375 130.082031 292.148438 131.796875 C 293.066406 133.507812 293.941406 135.246094 294.769531 137 C 295.601562 138.757812 296.390625 140.535156 297.132812 142.328125 C 297.875 144.125 298.574219 145.9375 299.230469 147.769531 C 299.886719 149.597656 300.496094 151.441406 301.058594 153.300781 C 301.621094 155.160156 302.140625 157.035156 302.613281 158.917969 C 303.085938 160.804688 303.511719 162.699219 303.890625 164.605469 C 304.269531 166.511719 304.601562 168.425781 304.886719 170.347656 C 305.171875 172.273438 305.410156 174.199219 305.601562 176.132812 C 305.789062 178.066406 305.933594 180.003906 306.027344 181.945312 C 306.125 183.886719 306.171875 185.828125 306.171875 187.773438 Z M 306.171875 187.773438 " fill-opacity="1" fill-rule="nonzero"/><path fill="#88c791" d="M 220.15625 118.164062 C 220.15625 118.96875 220.117188 119.769531 220.039062 120.570312 C 219.960938 121.367188 219.839844 122.160156 219.683594 122.949219 C 219.527344 123.738281 219.332031 124.515625 219.101562 125.285156 C 218.867188 126.054688 218.597656 126.808594 218.289062 127.550781 C 217.980469 128.292969 217.636719 129.019531 217.257812 129.726562 C 216.882812 130.4375 216.46875 131.125 216.023438 131.792969 C 215.574219 132.460938 215.097656 133.105469 214.589844 133.726562 C 214.078125 134.347656 213.539062 134.941406 212.972656 135.511719 C 212.402344 136.078125 211.808594 136.617188 211.1875 137.128906 C 210.566406 137.636719 209.921875 138.113281 209.253906 138.5625 C 208.585938 139.007812 207.898438 139.421875 207.1875 139.796875 C 206.480469 140.175781 205.753906 140.519531 205.011719 140.828125 C 204.269531 141.136719 203.515625 141.40625 202.746094 141.640625 C 201.976562 141.871094 201.199219 142.066406 200.410156 142.222656 C 199.621094 142.378906 198.828125 142.5 198.03125 142.578125 C 197.230469 142.65625 196.429688 142.695312 195.625 142.695312 C 194.820312 142.695312 194.019531 142.65625 193.21875 142.578125 C 192.421875 142.5 191.628906 142.378906 190.839844 142.222656 C 190.050781 142.066406 189.273438 141.871094 188.503906 141.640625 C 187.734375 141.40625 186.980469 141.136719 186.238281 140.828125 C 185.496094 140.519531 184.769531 140.175781 184.0625 139.796875 C 183.351562 139.421875 182.664062 139.007812 181.996094 138.5625 C 181.328125 138.113281 180.683594 137.636719 180.0625 137.128906 C 179.441406 136.617188 178.847656 136.078125 178.277344 135.511719 C 177.710938 134.941406 177.171875 134.347656 176.660156 133.726562 C 176.152344 133.105469 175.675781 132.460938 175.226562 131.792969 C 174.78125 131.125 174.367188 130.4375 173.992188 129.726562 C 173.613281 129.019531 173.269531 128.292969 172.960938 127.550781 C 172.652344 126.808594 172.382812 126.054688 172.148438 125.285156 C 171.917969 124.515625 171.722656 123.738281 171.566406 122.949219 C 171.410156 122.160156 171.289062 121.367188 171.210938 120.570312 C 171.132812 119.769531 171.09375 118.96875 171.09375 118.164062 C 171.09375 117.359375 171.132812 116.558594 171.210938 115.757812 C 171.289062 114.960938 171.410156 114.167969 171.566406 113.378906 C 171.722656 112.589844 171.917969 111.8125 172.148438 111.042969 C 172.382812 110.273438 172.652344 109.519531 172.960938 108.777344 C 173.269531 108.035156 173.613281 107.308594 173.992188 106.601562 C 174.367188 105.890625 174.78125 105.203125 175.226562 104.535156 C 175.675781 103.867188 176.152344 103.222656 176.660156 102.601562 C 177.171875 101.980469 177.710938 101.386719 178.277344 100.816406 C 178.847656 100.25 179.441406 99.710938 180.0625 99.199219 C 180.683594 98.691406 181.328125 98.214844 181.996094 97.765625 C 182.664062 97.320312 183.351562 96.90625 184.0625 96.53125 C 184.769531 96.152344 185.496094 95.808594 186.238281 95.5 C 186.980469 95.191406 187.734375 94.921875 188.503906 94.6875 C 189.273438 94.457031 190.050781 94.261719 190.839844 94.105469 C 191.628906 93.949219 192.421875 93.828125 193.21875 93.75 C 194.019531 93.671875 194.820312 93.632812 195.625 93.632812 C 196.429688 93.632812 197.230469 93.671875 198.03125 93.75 C 198.828125 93.828125 199.621094 93.949219 200.410156 94.105469 C 201.199219 94.261719 201.976562 94.457031 202.746094 94.6875 C 203.515625 94.921875 204.269531 95.191406 205.011719 95.5 C 205.753906 95.808594 206.480469 96.152344 207.1875 96.53125 C 207.898438 96.90625 208.585938 97.320312 209.253906 97.765625 C 209.921875 98.214844 210.566406 98.691406 211.1875 99.199219 C 211.808594 99.710938 212.402344 100.25 212.972656 100.816406 C 213.539062 101.386719 214.078125 101.980469 214.589844 102.601562 C 215.097656 103.222656 215.574219 103.867188 216.023438 104.535156 C 216.46875 105.203125 216.882812 105.890625 217.257812 106.601562 C 217.636719 107.308594 217.980469 108.035156 218.289062 108.777344 C 218.597656 109.519531 218.867188 110.273438 219.101562 111.042969 C 219.332031 111.8125 219.527344 112.589844 219.683594 113.378906 C 219.839844 114.167969 219.960938 114.960938 220.039062 115.757812 C 220.117188 116.558594 220.15625 117.359375 220.15625 118.164062 Z M 220.15625 118.164062 " fill-opacity="1" fill-rule="nonzero"/><path fill="#88c791" d="M 206.171875 200.273438 C 206.171875 201.09375 206.09375 201.90625 205.933594 202.710938 C 205.773438 203.515625 205.535156 204.296875 205.21875 205.058594 C 204.90625 205.816406 204.519531 206.535156 204.066406 207.21875 C 203.609375 207.902344 203.089844 208.53125 202.511719 209.113281 C 201.929688 209.691406 201.300781 210.210938 200.617188 210.667969 C 199.933594 211.121094 199.214844 211.507812 198.457031 211.820312 C 197.695312 212.136719 196.914062 212.375 196.109375 212.535156 C 195.304688 212.691406 194.492188 212.773438 193.671875 212.773438 C 192.851562 212.773438 192.039062 212.691406 191.234375 212.535156 C 190.429688 212.375 189.648438 212.136719 188.886719 211.820312 C 188.128906 211.507812 187.410156 211.121094 186.726562 210.667969 C 186.042969 210.210938 185.414062 209.691406 184.832031 209.113281 C 184.253906 208.53125 183.734375 207.902344 183.277344 207.21875 C 182.824219 206.535156 182.4375 205.816406 182.125 205.058594 C 181.808594 204.296875 181.570312 203.515625 181.410156 202.710938 C 181.25 201.90625 181.171875 201.09375 181.171875 200.273438 C 181.171875 199.453125 181.25 198.640625 181.410156 197.835938 C 181.570312 197.03125 181.808594 196.25 182.125 195.488281 C 182.4375 194.730469 182.824219 194.011719 183.277344 193.328125 C 183.734375 192.644531 184.253906 192.015625 184.832031 191.433594 C 185.414062 190.855469 186.042969 190.335938 186.726562 189.878906 C 187.410156 189.425781 188.128906 189.039062 188.886719 188.726562 C 189.648438 188.410156 190.429688 188.171875 191.234375 188.011719 C 192.039062 187.851562 192.851562 187.773438 193.671875 187.773438 C 194.492188 187.773438 195.304688 187.851562 196.109375 188.011719 C 196.914062 188.171875 197.695312 188.410156 198.457031 188.726562 C 199.214844 189.039062 199.933594 189.425781 200.617188 189.878906 C 201.300781 190.335938 201.929688 190.855469 202.511719 191.433594 C 203.089844 192.015625 203.609375 192.644531 204.066406 193.328125 C 204.519531 194.011719 204.90625 194.730469 205.21875 195.488281 C 205.535156 196.25 205.773438 197.03125 205.933594 197.835938 C 206.09375 198.640625 206.171875 199.453125 206.171875 200.273438 Z M 206.171875 200.273438 " fill-opacity="1" fill-rule="nonzero"/><path fill="#88c791" d="M 118.671875 228.398438 C 118.671875 233.554688 122.890625 237.773438 128.046875 237.773438 L 131.171875 237.773438 C 138.046875 237.773438 143.671875 243.398438 143.671875 250.273438 C 143.671875 257.148438 138.046875 262.773438 131.171875 262.773438 L 95.390625 262.773438 C 78.75 242.304688 68.671875 216.210938 68.671875 187.773438 C 68.671875 145.820312 90.46875 108.867188 123.359375 87.773438 L 131.171875 87.773438 C 141.484375 87.773438 149.921875 96.210938 149.921875 106.523438 C 149.921875 116.835938 141.484375 125.273438 131.171875 125.273438 L 124.921875 125.273438 C 114.609375 125.273438 106.171875 133.710938 106.171875 144.023438 C 106.171875 154.335938 114.609375 162.773438 124.921875 162.773438 L 128.046875 162.773438 C 143.59375 162.773438 156.171875 175.351562 156.171875 190.898438 C 156.171875 206.445312 143.59375 219.023438 128.046875 219.023438 C 122.890625 219.023438 118.671875 223.242188 118.671875 228.398438 Z M 118.671875 228.398438 " fill-opacity="1" fill-rule="nonzero"/><path fill="#88c791" d="M 306.171875 187.773438 C 306.171875 239.570312 272.96875 283.632812 226.71875 299.882812 C 226.09375 299.492188 225.46875 299.101562 224.921875 298.710938 C 213.59375 290.820312 206.171875 277.695312 206.171875 262.773438 C 206.171875 238.632812 225.78125 219.023438 249.921875 219.023438 L 253.046875 219.023438 C 261.71875 219.023438 268.671875 212.070312 268.671875 203.398438 C 268.671875 194.726562 261.71875 187.773438 253.046875 187.773438 L 246.796875 187.773438 C 234.6875 187.773438 224.921875 178.007812 224.921875 165.898438 C 224.921875 153.789062 234.6875 144.023438 246.796875 144.023438 L 297.890625 144.023438 C 303.203125 157.539062 306.171875 172.304688 306.171875 187.773438 Z M 306.171875 187.773438 " fill-opacity="1" fill-rule="nonzero"/><path fill="#e1e3e6" d="M 175.15625 374.882812 C 175 374.882812 174.84375 374.882812 174.765625 374.882812 C 166.25 374.335938 157.734375 373.164062 149.453125 371.445312 C 146.09375 370.742188 143.90625 367.460938 144.609375 364.023438 C 145.3125 360.664062 148.59375 358.476562 152.03125 359.179688 C 159.765625 360.742188 167.734375 361.835938 175.703125 362.382812 C 179.140625 362.617188 181.71875 365.585938 181.484375 369.023438 C 181.171875 372.304688 178.4375 374.882812 175.15625 374.882812 Z M 175.15625 374.882812 " fill-opacity="1" fill-rule="nonzero"/><path fill="#e1e3e6" d="M 199.84375 374.882812 C 196.5625 374.882812 193.828125 372.382812 193.59375 369.023438 C 193.359375 365.585938 195.9375 362.617188 199.375 362.382812 C 207.34375 361.835938 215.3125 360.742188 223.046875 359.179688 C 226.40625 358.476562 229.765625 360.664062 230.46875 364.023438 C 231.171875 367.382812 228.984375 370.742188 225.625 371.445312 C 217.34375 373.164062 208.75 374.335938 200.3125 374.882812 C 200.15625 374.882812 200 374.882812 199.84375 374.882812 Z M 199.84375 374.882812 " fill-opacity="1" fill-rule="nonzero"/><path fill="#e1e3e6" d="M 126.796875 364.882812 C 126.09375 364.882812 125.390625 364.804688 124.6875 364.492188 C 116.640625 361.679688 108.75 358.242188 101.171875 354.257812 C 98.125 352.695312 96.875 348.867188 98.515625 345.820312 C 100.078125 342.773438 103.90625 341.523438 106.953125 343.164062 C 113.984375 346.835938 121.40625 350.039062 128.828125 352.695312 C 132.109375 353.867188 133.75 357.382812 132.65625 360.664062 C 131.796875 363.320312 129.375 364.882812 126.796875 364.882812 Z M 126.796875 364.882812 " fill-opacity="1" fill-rule="nonzero"/><path fill="#e1e3e6" d="M 248.203125 364.804688 C 245.625 364.804688 243.203125 363.242188 242.34375 360.664062 C 241.171875 357.382812 242.890625 353.867188 246.171875 352.695312 C 253.671875 350.039062 261.015625 346.835938 268.046875 343.164062 C 271.09375 341.601562 274.921875 342.773438 276.484375 345.820312 C 278.046875 348.867188 276.875 352.695312 273.828125 354.257812 C 266.25 358.164062 258.359375 361.601562 250.390625 364.492188 C 249.609375 364.726562 248.90625 364.804688 248.203125 364.804688 Z M 248.203125 364.804688 " fill-opacity="1" fill-rule="nonzero"/><path fill="#e1e3e6" d="M 82.96875 342.148438 C 81.71875 342.148438 80.46875 341.757812 79.375 340.976562 C 72.421875 336.054688 65.78125 330.664062 59.53125 324.804688 C 57.03125 322.460938 56.875 318.476562 59.21875 315.976562 C 61.5625 313.476562 65.546875 313.320312 68.046875 315.664062 C 73.828125 321.054688 80.078125 326.132812 86.5625 330.742188 C 89.375 332.695312 90.078125 336.601562 88.046875 339.414062 C 86.875 341.210938 84.921875 342.148438 82.96875 342.148438 Z M 82.96875 342.148438 " fill-opacity="1" fill-rule="nonzero"/><path fill="#e1e3e6" d="M 291.953125 342.070312 C 290 342.070312 288.046875 341.132812 286.875 339.414062 C 284.84375 336.601562 285.546875 332.695312 288.359375 330.664062 C 294.84375 326.054688 301.09375 320.976562 306.875 315.585938 C 309.375 313.242188 313.359375 313.398438 315.703125 315.898438 C 318.046875 318.398438 317.890625 322.382812 315.390625 324.726562 C 309.140625 330.507812 302.5 335.976562 295.546875 340.898438 C 294.53125 341.757812 293.203125 342.070312 291.953125 342.070312 Z M 291.953125 342.070312 " fill-opacity="1" fill-rule="nonzero"/><path fill="#e1e3e6" d="M 46.875 308.476562 C 45.078125 308.476562 43.28125 307.695312 42.03125 306.210938 C 36.640625 299.648438 31.71875 292.617188 27.265625 285.351562 C 25.46875 282.382812 26.40625 278.554688 29.375 276.757812 C 32.34375 274.960938 36.171875 275.898438 37.96875 278.867188 C 42.109375 285.664062 46.71875 292.226562 51.796875 298.320312 C 53.984375 300.976562 53.59375 304.960938 50.9375 307.148438 C 49.6875 308.007812 48.28125 308.476562 46.875 308.476562 Z M 46.875 308.476562 " fill-opacity="1" fill-rule="nonzero"/><path fill="#e1e3e6" d="M 328.046875 308.398438 C 326.640625 308.398438 325.234375 307.929688 324.140625 306.992188 C 321.484375 304.804688 321.09375 300.898438 323.203125 298.164062 C 328.203125 291.992188 332.890625 285.429688 337.03125 278.632812 C 338.828125 275.664062 342.65625 274.726562 345.625 276.523438 C 348.59375 278.320312 349.53125 282.148438 347.734375 285.117188 C 343.28125 292.382812 338.359375 299.414062 332.96875 305.976562 C 331.640625 307.617188 329.84375 308.398438 328.046875 308.398438 Z M 328.046875 308.398438 " fill-opacity="1" fill-rule="nonzero"/><path fill="#e1e3e6" d="M 21.171875 266.367188 C 18.75 266.367188 16.484375 264.960938 15.46875 262.617188 C 12.03125 254.804688 9.140625 246.679688 6.875 238.476562 C 5.9375 235.117188 7.890625 231.679688 11.171875 230.742188 C 14.53125 229.804688 17.96875 231.757812 18.90625 235.039062 C 21.015625 242.695312 23.75 250.273438 26.953125 257.539062 C 28.359375 260.664062 26.875 264.414062 23.75 265.742188 C 22.890625 266.210938 22.03125 266.367188 21.171875 266.367188 Z M 21.171875 266.367188 " fill-opacity="1" fill-rule="nonzero"/><path fill="#e1e3e6" d="M 353.75 266.210938 C 352.890625 266.210938 352.109375 266.054688 351.25 265.664062 C 348.046875 264.257812 346.640625 260.585938 348.046875 257.460938 C 351.25 250.195312 353.90625 242.617188 356.015625 234.960938 C 356.953125 231.601562 360.390625 229.726562 363.75 230.585938 C 367.109375 231.523438 368.984375 234.960938 368.125 238.320312 C 365.859375 246.523438 362.96875 254.648438 359.53125 262.460938 C 358.4375 264.804688 356.09375 266.210938 353.75 266.210938 Z M 353.75 266.210938 " fill-opacity="1" fill-rule="nonzero"/><path fill="#e1e3e6" d="M 7.890625 218.867188 C 4.84375 218.867188 2.109375 216.601562 1.71875 213.476562 C 0.546875 205.117188 0 196.523438 0 187.929688 C 0 184.492188 2.8125 181.679688 6.25 181.679688 C 9.6875 181.679688 12.5 184.492188 12.5 187.929688 C 12.5 195.898438 13.046875 203.945312 14.140625 211.757812 C 14.609375 215.195312 12.1875 218.320312 8.828125 218.789062 C 8.4375 218.867188 8.125 218.867188 7.890625 218.867188 Z M 7.890625 218.867188 " fill-opacity="1" fill-rule="nonzero"/><path fill="#e1e3e6" d="M 367.03125 218.710938 C 366.71875 218.710938 366.484375 218.710938 366.171875 218.632812 C 362.734375 218.164062 360.390625 215.039062 360.859375 211.601562 C 361.953125 203.789062 362.5 195.742188 362.5 187.773438 L 362.5 187.382812 C 362.5 183.945312 365.3125 181.132812 368.75 181.132812 C 372.1875 181.132812 375 183.945312 375 187.382812 L 375 187.695312 C 375 196.289062 374.453125 204.882812 373.28125 213.242188 C 372.734375 216.445312 370.078125 218.710938 367.03125 218.710938 Z M 367.03125 218.710938 " fill-opacity="1" fill-rule="nonzero"/><path fill="#e1e3e6" d="M 7.8125 169.492188 C 7.5 169.492188 7.265625 169.492188 6.953125 169.414062 C 3.515625 168.945312 1.171875 165.820312 1.5625 162.382812 C 2.734375 153.945312 4.453125 145.507812 6.71875 137.304688 C 7.65625 133.945312 11.09375 132.070312 14.453125 132.929688 C 17.8125 133.867188 19.6875 137.304688 18.828125 140.664062 C 16.71875 148.320312 15.078125 156.132812 13.984375 164.023438 C 13.59375 167.226562 10.9375 169.492188 7.8125 169.492188 Z M 7.8125 169.492188 " fill-opacity="1" fill-rule="nonzero"/><path fill="#e1e3e6" d="M 366.953125 169.023438 C 363.90625 169.023438 361.171875 166.757812 360.78125 163.632812 C 359.6875 155.742188 358.046875 147.929688 355.9375 140.273438 C 355 136.914062 356.953125 133.476562 360.234375 132.539062 C 363.515625 131.601562 367.03125 133.554688 367.96875 136.835938 C 370.234375 145.039062 372.03125 153.476562 373.203125 161.914062 C 373.671875 165.351562 371.25 168.476562 367.890625 168.945312 C 367.5 168.945312 367.265625 169.023438 366.953125 169.023438 Z M 366.953125 169.023438 " fill-opacity="1" fill-rule="nonzero"/><path fill="#e1e3e6" d="M 21.015625 121.992188 C 20.15625 121.992188 19.375 121.835938 18.515625 121.445312 C 15.3125 120.039062 13.90625 116.367188 15.234375 113.242188 C 18.59375 105.429688 22.578125 97.773438 27.03125 90.507812 C 28.828125 87.539062 32.65625 86.601562 35.625 88.398438 C 38.59375 90.195312 39.53125 94.023438 37.734375 96.992188 C 33.59375 103.789062 29.921875 110.898438 26.71875 118.242188 C 25.78125 120.585938 23.4375 121.992188 21.015625 121.992188 Z M 21.015625 121.992188 " fill-opacity="1" fill-rule="nonzero"/><path fill="#e1e3e6" d="M 353.59375 121.523438 C 351.171875 121.523438 348.90625 120.117188 347.890625 117.773438 C 344.6875 110.507812 341.015625 103.398438 336.875 96.601562 C 335.078125 93.632812 336.015625 89.804688 338.90625 88.007812 C 341.875 86.210938 345.703125 87.148438 347.5 90.039062 C 351.953125 97.304688 355.9375 104.960938 359.296875 112.695312 C 360.703125 115.820312 359.21875 119.570312 356.09375 120.898438 C 355.234375 121.289062 354.453125 121.523438 353.59375 121.523438 Z M 353.59375 121.523438 " fill-opacity="1" fill-rule="nonzero"/><path fill="#e1e3e6" d="M 46.71875 79.804688 C 45.3125 79.804688 43.90625 79.335938 42.8125 78.398438 C 40.15625 76.210938 39.765625 72.304688 41.875 69.570312 C 47.265625 62.929688 53.125 56.679688 59.296875 50.820312 C 61.796875 48.476562 65.78125 48.554688 68.125 51.132812 C 70.46875 53.632812 70.390625 57.617188 67.8125 59.960938 C 62.03125 65.351562 56.5625 71.289062 51.5625 77.460938 C 50.3125 79.023438 48.515625 79.804688 46.71875 79.804688 Z M 46.71875 79.804688 " fill-opacity="1" fill-rule="nonzero"/><path fill="#e1e3e6" d="M 327.8125 79.414062 C 326.015625 79.414062 324.21875 78.632812 322.96875 77.148438 C 317.96875 70.976562 312.421875 65.117188 306.640625 59.726562 C 304.140625 57.382812 303.984375 53.398438 306.328125 50.898438 C 308.671875 48.398438 312.65625 48.242188 315.15625 50.585938 C 321.40625 56.367188 327.265625 62.695312 332.65625 69.257812 C 334.84375 71.914062 334.453125 75.898438 331.796875 78.085938 C 330.625 78.945312 329.21875 79.414062 327.8125 79.414062 Z M 327.8125 79.414062 " fill-opacity="1" fill-rule="nonzero"/><path fill="#e1e3e6" d="M 82.734375 46.054688 C 80.78125 46.054688 78.828125 45.117188 77.65625 43.398438 C 75.625 40.585938 76.328125 36.679688 79.140625 34.648438 C 86.09375 29.726562 93.4375 25.273438 100.9375 21.289062 C 103.984375 19.726562 107.8125 20.898438 109.375 23.945312 C 110.9375 26.992188 109.765625 30.820312 106.71875 32.382812 C 99.6875 36.054688 92.8125 40.273438 86.328125 44.804688 C 85.234375 45.664062 83.984375 46.054688 82.734375 46.054688 Z M 82.734375 46.054688 " fill-opacity="1" fill-rule="nonzero"/><path fill="#e1e3e6" d="M 291.71875 45.742188 C 290.46875 45.742188 289.21875 45.351562 288.125 44.570312 C 281.640625 39.960938 274.765625 35.820312 267.734375 32.148438 C 264.6875 30.585938 263.4375 26.757812 265.078125 23.710938 C 266.640625 20.664062 270.46875 19.414062 273.515625 21.054688 C 281.09375 24.960938 288.4375 29.414062 295.390625 34.335938 C 298.203125 36.289062 298.90625 40.195312 296.875 43.007812 C 295.625 44.882812 293.671875 45.742188 291.71875 45.742188 Z M 291.71875 45.742188 " fill-opacity="1" fill-rule="nonzero"/><path fill="#e1e3e6" d="M 126.484375 23.242188 C 123.90625 23.242188 121.484375 21.679688 120.625 19.101562 C 119.453125 15.820312 121.171875 12.304688 124.375 11.132812 C 132.421875 8.242188 140.703125 5.976562 148.984375 4.179688 C 152.34375 3.476562 155.703125 5.664062 156.40625 9.023438 C 157.109375 12.382812 154.921875 15.742188 151.5625 16.445312 C 143.75 18.085938 136.09375 20.273438 128.59375 22.929688 C 127.890625 23.164062 127.1875 23.242188 126.484375 23.242188 Z M 126.484375 23.242188 " fill-opacity="1" fill-rule="nonzero"/><path fill="#e1e3e6" d="M 247.890625 23.085938 C 247.1875 23.085938 246.484375 23.007812 245.78125 22.695312 C 238.28125 20.039062 230.546875 17.929688 222.734375 16.289062 C 219.375 15.585938 217.1875 12.304688 217.890625 8.945312 C 218.59375 5.585938 221.875 3.398438 225.234375 4.101562 C 233.59375 5.820312 241.875 8.085938 249.921875 10.976562 C 253.203125 12.148438 254.84375 15.664062 253.75 18.945312 C 252.890625 21.523438 250.46875 23.085938 247.890625 23.085938 Z M 247.890625 23.085938 " fill-opacity="1" fill-rule="nonzero"/><path fill="#e1e3e6" d="M 174.765625 13.242188 C 171.484375 13.242188 168.75 10.742188 168.515625 7.382812 C 168.28125 3.945312 170.859375 0.976562 174.296875 0.742188 C 182.734375 0.195312 191.40625 0.117188 199.84375 0.742188 C 203.28125 0.976562 205.859375 3.945312 205.703125 7.382812 C 205.46875 10.820312 202.5 13.398438 199.0625 13.242188 C 191.171875 12.695312 183.046875 12.695312 175.15625 13.242188 C 175.078125 13.164062 174.921875 13.242188 174.765625 13.242188 Z M 174.765625 13.242188 " fill-opacity="1" fill-rule="nonzero"/><path fill="#bfb1a3" d="M 93.671875 44.023438 C 93.671875 44.84375 93.632812 45.660156 93.550781 46.472656 C 93.472656 47.289062 93.351562 48.097656 93.191406 48.902344 C 93.03125 49.703125 92.832031 50.496094 92.59375 51.28125 C 92.359375 52.0625 92.082031 52.835938 91.769531 53.589844 C 91.457031 54.347656 91.105469 55.085938 90.71875 55.808594 C 90.332031 56.53125 89.914062 57.230469 89.457031 57.914062 C 89.003906 58.59375 88.515625 59.25 87.996094 59.882812 C 87.476562 60.515625 86.929688 61.121094 86.347656 61.699219 C 85.769531 62.28125 85.164062 62.828125 84.53125 63.347656 C 83.898438 63.867188 83.242188 64.355469 82.5625 64.808594 C 81.878906 65.265625 81.179688 65.683594 80.457031 66.070312 C 79.734375 66.457031 78.996094 66.808594 78.238281 67.121094 C 77.484375 67.433594 76.710938 67.710938 75.929688 67.945312 C 75.144531 68.183594 74.351562 68.382812 73.550781 68.542969 C 72.746094 68.703125 71.9375 68.824219 71.121094 68.902344 C 70.308594 68.984375 69.492188 69.023438 68.671875 69.023438 C 67.851562 69.023438 67.035156 68.984375 66.222656 68.902344 C 65.40625 68.824219 64.597656 68.703125 63.792969 68.542969 C 62.992188 68.382812 62.199219 68.183594 61.414062 67.945312 C 60.632812 67.710938 59.859375 67.433594 59.105469 67.121094 C 58.347656 66.808594 57.609375 66.457031 56.886719 66.070312 C 56.164062 65.683594 55.464844 65.265625 54.78125 64.808594 C 54.101562 64.355469 53.445312 63.867188 52.8125 63.347656 C 52.179688 62.828125 51.574219 62.28125 50.996094 61.699219 C 50.414062 61.121094 49.867188 60.515625 49.347656 59.882812 C 48.828125 59.25 48.339844 58.59375 47.886719 57.914062 C 47.429688 57.230469 47.011719 56.53125 46.625 55.808594 C 46.238281 55.085938 45.886719 54.347656 45.574219 53.589844 C 45.261719 52.835938 44.984375 52.0625 44.75 51.28125 C 44.511719 50.496094 44.3125 49.703125 44.152344 48.902344 C 43.992188 48.097656 43.871094 47.289062 43.792969 46.472656 C 43.710938 45.660156 43.671875 44.84375 43.671875 44.023438 C 43.671875 43.203125 43.710938 42.386719 43.792969 41.574219 C 43.871094 40.757812 43.992188 39.949219 44.152344 39.144531 C 44.3125 38.34375 44.511719 37.550781 44.75 36.765625 C 44.984375 35.984375 45.261719 35.210938 45.574219 34.457031 C 45.886719 33.699219 46.238281 32.960938 46.625 32.238281 C 47.011719 31.515625 47.429688 30.816406 47.886719 30.132812 C 48.339844 29.453125 48.828125 28.796875 49.347656 28.164062 C 49.867188 27.53125 50.414062 26.925781 50.996094 26.347656 C 51.574219 25.765625 52.179688 25.21875 52.8125 24.699219 C 53.445312 24.179688 54.101562 23.691406 54.78125 23.238281 C 55.464844 22.78125 56.164062 22.363281 56.886719 21.976562 C 57.609375 21.589844 58.347656 21.238281 59.105469 20.925781 C 59.859375 20.613281 60.632812 20.335938 61.414062 20.101562 C 62.199219 19.863281 62.992188 19.664062 63.792969 19.503906 C 64.597656 19.34375 65.40625 19.222656 66.222656 19.144531 C 67.035156 19.0625 67.851562 19.023438 68.671875 19.023438 C 69.492188 19.023438 70.308594 19.0625 71.121094 19.144531 C 71.9375 19.222656 72.746094 19.34375 73.550781 19.503906 C 74.351562 19.664062 75.144531 19.863281 75.929688 20.101562 C 76.710938 20.335938 77.484375 20.613281 78.238281 20.925781 C 78.996094 21.238281 79.734375 21.589844 80.457031 21.976562 C 81.179688 22.363281 81.878906 22.78125 82.5625 23.238281 C 83.242188 23.691406 83.898438 24.179688 84.53125 24.699219 C 85.164062 25.21875 85.769531 25.765625 86.347656 26.347656 C 86.929688 26.925781 87.476562 27.53125 87.996094 28.164062 C 88.515625 28.796875 89.003906 29.453125 89.457031 30.132812 C 89.914062 30.816406 90.332031 31.515625 90.71875 32.238281 C 91.105469 32.960938 91.457031 33.699219 91.769531 34.457031 C 92.082031 35.210938 92.359375 35.984375 92.59375 36.765625 C 92.832031 37.550781 93.03125 38.34375 93.191406 39.144531 C 93.351562 39.949219 93.472656 40.757812 93.550781 41.574219 C 93.632812 42.386719 93.671875 43.203125 93.671875 44.023438 Z M 93.671875 44.023438 " fill-opacity="1" fill-rule="nonzero"/></svg>